<mxfile host="app.diagrams.net" modified="2024-07-11T02:53:08.755Z" agent="Mozilla/5.0 (Macintosh; Intel Mac OS X 10_15_7) AppleWebKit/537.36 (KHTML, like Gecko) Chrome/126.0.0.0 Safari/537.36" etag="hl_NpLqz5812qV2rPHRz" version="24.6.4" type="github">
  <diagram name="Page-1" id="c8FxS6cVeipmENtJdd52">
    <mxGraphModel dx="1981" dy="1057" grid="1" gridSize="10" guides="1" tooltips="1" connect="1" arrows="1" fold="1" page="1" pageScale="1" pageWidth="850" pageHeight="1100" math="0" shadow="0">
      <root>
        <mxCell id="0" />
        <mxCell id="1" parent="0" />
        <mxCell id="24G2LlNa-_oyBwP8V9sJ-55" style="edgeStyle=orthogonalEdgeStyle;rounded=0;orthogonalLoop=1;jettySize=auto;html=1;entryX=0.5;entryY=1;entryDx=0;entryDy=0;" edge="1" parent="1" source="24G2LlNa-_oyBwP8V9sJ-1" target="24G2LlNa-_oyBwP8V9sJ-2">
          <mxGeometry relative="1" as="geometry" />
        </mxCell>
        <mxCell id="24G2LlNa-_oyBwP8V9sJ-57" style="edgeStyle=orthogonalEdgeStyle;rounded=0;orthogonalLoop=1;jettySize=auto;html=1;entryX=0.75;entryY=0;entryDx=0;entryDy=0;" edge="1" parent="1" source="24G2LlNa-_oyBwP8V9sJ-1" target="24G2LlNa-_oyBwP8V9sJ-18">
          <mxGeometry relative="1" as="geometry" />
        </mxCell>
        <mxCell id="24G2LlNa-_oyBwP8V9sJ-58" style="edgeStyle=orthogonalEdgeStyle;rounded=0;orthogonalLoop=1;jettySize=auto;html=1;entryX=0.5;entryY=0;entryDx=0;entryDy=0;" edge="1" parent="1" source="24G2LlNa-_oyBwP8V9sJ-1" target="24G2LlNa-_oyBwP8V9sJ-12">
          <mxGeometry relative="1" as="geometry" />
        </mxCell>
        <mxCell id="24G2LlNa-_oyBwP8V9sJ-59" style="edgeStyle=orthogonalEdgeStyle;rounded=0;orthogonalLoop=1;jettySize=auto;html=1;entryX=0.75;entryY=0;entryDx=0;entryDy=0;" edge="1" parent="1" source="24G2LlNa-_oyBwP8V9sJ-1" target="24G2LlNa-_oyBwP8V9sJ-35">
          <mxGeometry relative="1" as="geometry" />
        </mxCell>
        <mxCell id="24G2LlNa-_oyBwP8V9sJ-60" style="edgeStyle=orthogonalEdgeStyle;rounded=0;orthogonalLoop=1;jettySize=auto;html=1;" edge="1" parent="1" source="24G2LlNa-_oyBwP8V9sJ-1" target="24G2LlNa-_oyBwP8V9sJ-27">
          <mxGeometry relative="1" as="geometry">
            <Array as="points">
              <mxPoint x="395" y="680" />
              <mxPoint x="700" y="680" />
            </Array>
          </mxGeometry>
        </mxCell>
        <mxCell id="24G2LlNa-_oyBwP8V9sJ-1" value="&lt;font size=&quot;3&quot;&gt;Senior Care Data Model&lt;/font&gt;" style="rounded=1;whiteSpace=wrap;html=1;" vertex="1" parent="1">
          <mxGeometry x="320" y="300" width="150" height="80" as="geometry" />
        </mxCell>
        <mxCell id="24G2LlNa-_oyBwP8V9sJ-40" style="edgeStyle=orthogonalEdgeStyle;rounded=0;orthogonalLoop=1;jettySize=auto;html=1;entryX=0.25;entryY=1;entryDx=0;entryDy=0;" edge="1" parent="1" source="24G2LlNa-_oyBwP8V9sJ-2" target="24G2LlNa-_oyBwP8V9sJ-4">
          <mxGeometry relative="1" as="geometry" />
        </mxCell>
        <mxCell id="24G2LlNa-_oyBwP8V9sJ-2" value="&lt;font size=&quot;3&quot;&gt;Users&lt;/font&gt;" style="rounded=1;whiteSpace=wrap;html=1;" vertex="1" parent="1">
          <mxGeometry x="80" y="160" width="110" height="50" as="geometry" />
        </mxCell>
        <mxCell id="24G2LlNa-_oyBwP8V9sJ-3" value="Patient" style="rounded=1;whiteSpace=wrap;html=1;" vertex="1" parent="1">
          <mxGeometry x="20" y="60" width="90" height="50" as="geometry" />
        </mxCell>
        <mxCell id="24G2LlNa-_oyBwP8V9sJ-4" value="Physician" style="rounded=1;whiteSpace=wrap;html=1;" vertex="1" parent="1">
          <mxGeometry x="130" y="60" width="90" height="50" as="geometry" />
        </mxCell>
        <mxCell id="24G2LlNa-_oyBwP8V9sJ-5" value="Caretaker" style="rounded=1;whiteSpace=wrap;html=1;" vertex="1" parent="1">
          <mxGeometry x="240" y="60" width="90" height="50" as="geometry" />
        </mxCell>
        <mxCell id="24G2LlNa-_oyBwP8V9sJ-42" value="" style="edgeStyle=orthogonalEdgeStyle;rounded=0;orthogonalLoop=1;jettySize=auto;html=1;" edge="1" parent="1" source="24G2LlNa-_oyBwP8V9sJ-6" target="24G2LlNa-_oyBwP8V9sJ-8">
          <mxGeometry relative="1" as="geometry" />
        </mxCell>
        <mxCell id="24G2LlNa-_oyBwP8V9sJ-43" style="edgeStyle=orthogonalEdgeStyle;rounded=0;orthogonalLoop=1;jettySize=auto;html=1;entryX=0.5;entryY=1;entryDx=0;entryDy=0;" edge="1" parent="1" source="24G2LlNa-_oyBwP8V9sJ-6" target="24G2LlNa-_oyBwP8V9sJ-7">
          <mxGeometry relative="1" as="geometry" />
        </mxCell>
        <mxCell id="24G2LlNa-_oyBwP8V9sJ-47" style="edgeStyle=orthogonalEdgeStyle;rounded=0;orthogonalLoop=1;jettySize=auto;html=1;" edge="1" parent="1" source="24G2LlNa-_oyBwP8V9sJ-6" target="24G2LlNa-_oyBwP8V9sJ-11">
          <mxGeometry relative="1" as="geometry">
            <Array as="points">
              <mxPoint x="600" y="255" />
            </Array>
          </mxGeometry>
        </mxCell>
        <mxCell id="24G2LlNa-_oyBwP8V9sJ-6" value="&lt;font size=&quot;3&quot;&gt;Diagnosis&lt;/font&gt;" style="rounded=1;whiteSpace=wrap;html=1;" vertex="1" parent="1">
          <mxGeometry x="540" y="150" width="100" height="60" as="geometry" />
        </mxCell>
        <mxCell id="24G2LlNa-_oyBwP8V9sJ-7" value="IsPrimaryDiagnosis" style="rounded=1;whiteSpace=wrap;html=1;" vertex="1" parent="1">
          <mxGeometry x="390" y="60" width="110" height="50" as="geometry" />
        </mxCell>
        <mxCell id="24G2LlNa-_oyBwP8V9sJ-8" value="Date of diagnosis" style="rounded=1;whiteSpace=wrap;html=1;" vertex="1" parent="1">
          <mxGeometry x="520" y="60" width="110" height="50" as="geometry" />
        </mxCell>
        <mxCell id="24G2LlNa-_oyBwP8V9sJ-9" value="Diagnosed by physician" style="rounded=1;whiteSpace=wrap;html=1;" vertex="1" parent="1">
          <mxGeometry x="650" y="60" width="110" height="50" as="geometry" />
        </mxCell>
        <mxCell id="24G2LlNa-_oyBwP8V9sJ-10" value="Diagnosis Severity" style="rounded=1;whiteSpace=wrap;html=1;" vertex="1" parent="1">
          <mxGeometry x="690" y="150" width="110" height="50" as="geometry" />
        </mxCell>
        <mxCell id="24G2LlNa-_oyBwP8V9sJ-11" value="Date diagnosis cancelled" style="rounded=1;whiteSpace=wrap;html=1;" vertex="1" parent="1">
          <mxGeometry x="690" y="230" width="110" height="50" as="geometry" />
        </mxCell>
        <mxCell id="24G2LlNa-_oyBwP8V9sJ-62" style="edgeStyle=orthogonalEdgeStyle;rounded=0;orthogonalLoop=1;jettySize=auto;html=1;" edge="1" parent="1" source="24G2LlNa-_oyBwP8V9sJ-12" target="24G2LlNa-_oyBwP8V9sJ-15">
          <mxGeometry relative="1" as="geometry" />
        </mxCell>
        <mxCell id="24G2LlNa-_oyBwP8V9sJ-63" style="edgeStyle=orthogonalEdgeStyle;rounded=0;orthogonalLoop=1;jettySize=auto;html=1;entryX=0.5;entryY=0;entryDx=0;entryDy=0;" edge="1" parent="1" source="24G2LlNa-_oyBwP8V9sJ-12" target="24G2LlNa-_oyBwP8V9sJ-13">
          <mxGeometry relative="1" as="geometry" />
        </mxCell>
        <mxCell id="24G2LlNa-_oyBwP8V9sJ-64" style="edgeStyle=orthogonalEdgeStyle;rounded=0;orthogonalLoop=1;jettySize=auto;html=1;entryX=0.5;entryY=0;entryDx=0;entryDy=0;" edge="1" parent="1" source="24G2LlNa-_oyBwP8V9sJ-12" target="24G2LlNa-_oyBwP8V9sJ-14">
          <mxGeometry relative="1" as="geometry" />
        </mxCell>
        <mxCell id="24G2LlNa-_oyBwP8V9sJ-66" style="edgeStyle=orthogonalEdgeStyle;rounded=0;orthogonalLoop=1;jettySize=auto;html=1;entryDx=0;entryDy=0;" edge="1" parent="1" source="24G2LlNa-_oyBwP8V9sJ-12" target="24G2LlNa-_oyBwP8V9sJ-16">
          <mxGeometry relative="1" as="geometry" />
        </mxCell>
        <mxCell id="24G2LlNa-_oyBwP8V9sJ-67" style="edgeStyle=orthogonalEdgeStyle;rounded=0;orthogonalLoop=1;jettySize=auto;html=1;entryX=0.5;entryY=1;entryDx=0;entryDy=0;" edge="1" parent="1" source="24G2LlNa-_oyBwP8V9sJ-12" target="24G2LlNa-_oyBwP8V9sJ-17">
          <mxGeometry relative="1" as="geometry" />
        </mxCell>
        <mxCell id="24G2LlNa-_oyBwP8V9sJ-12" value="&lt;font size=&quot;3&quot;&gt;Patient Caregiver&lt;/font&gt;" style="rounded=1;whiteSpace=wrap;html=1;" vertex="1" parent="1">
          <mxGeometry x="80" y="550" width="120" height="60" as="geometry" />
        </mxCell>
        <mxCell id="24G2LlNa-_oyBwP8V9sJ-13" value="Relationship with patient" style="rounded=1;whiteSpace=wrap;html=1;" vertex="1" parent="1">
          <mxGeometry x="20" y="650" width="100" height="50" as="geometry" />
        </mxCell>
        <mxCell id="24G2LlNa-_oyBwP8V9sJ-14" value="Is primary caregiver" style="rounded=1;whiteSpace=wrap;html=1;" vertex="1" parent="1">
          <mxGeometry x="140" y="650" width="110" height="50" as="geometry" />
        </mxCell>
        <mxCell id="24G2LlNa-_oyBwP8V9sJ-15" value="Caregiving start/end date" style="rounded=1;whiteSpace=wrap;html=1;" vertex="1" parent="1">
          <mxGeometry x="250" y="550" width="90" height="60" as="geometry" />
        </mxCell>
        <mxCell id="24G2LlNa-_oyBwP8V9sJ-16" value="Diagnosis Info Access (Y/N)" style="rounded=1;whiteSpace=wrap;html=1;" vertex="1" parent="1">
          <mxGeometry x="10" y="470" width="110" height="50" as="geometry" />
        </mxCell>
        <mxCell id="24G2LlNa-_oyBwP8V9sJ-17" value="Medication Info Access(Y/N)" style="rounded=1;whiteSpace=wrap;html=1;" vertex="1" parent="1">
          <mxGeometry x="160" y="470" width="100" height="50" as="geometry" />
        </mxCell>
        <mxCell id="24G2LlNa-_oyBwP8V9sJ-48" style="edgeStyle=orthogonalEdgeStyle;rounded=0;orthogonalLoop=1;jettySize=auto;html=1;exitX=0.5;exitY=0;exitDx=0;exitDy=0;entryX=0.75;entryY=1;entryDx=0;entryDy=0;" edge="1" parent="1" source="24G2LlNa-_oyBwP8V9sJ-18" target="24G2LlNa-_oyBwP8V9sJ-20">
          <mxGeometry relative="1" as="geometry" />
        </mxCell>
        <mxCell id="24G2LlNa-_oyBwP8V9sJ-50" style="edgeStyle=orthogonalEdgeStyle;rounded=0;orthogonalLoop=1;jettySize=auto;html=1;entryX=0.5;entryY=1;entryDx=0;entryDy=0;" edge="1" parent="1" source="24G2LlNa-_oyBwP8V9sJ-18" target="24G2LlNa-_oyBwP8V9sJ-19">
          <mxGeometry relative="1" as="geometry">
            <Array as="points">
              <mxPoint x="620" y="500" />
              <mxPoint x="620" y="460" />
              <mxPoint x="575" y="460" />
            </Array>
          </mxGeometry>
        </mxCell>
        <mxCell id="24G2LlNa-_oyBwP8V9sJ-54" style="edgeStyle=orthogonalEdgeStyle;rounded=0;orthogonalLoop=1;jettySize=auto;html=1;" edge="1" parent="1" source="24G2LlNa-_oyBwP8V9sJ-18" target="24G2LlNa-_oyBwP8V9sJ-21">
          <mxGeometry relative="1" as="geometry">
            <Array as="points">
              <mxPoint x="710" y="550" />
              <mxPoint x="540" y="550" />
            </Array>
          </mxGeometry>
        </mxCell>
        <mxCell id="24G2LlNa-_oyBwP8V9sJ-18" value="&lt;font style=&quot;font-size: 16px;&quot;&gt;Medications&lt;/font&gt;" style="rounded=1;whiteSpace=wrap;html=1;" vertex="1" parent="1">
          <mxGeometry x="650" y="470" width="120" height="60" as="geometry" />
        </mxCell>
        <mxCell id="24G2LlNa-_oyBwP8V9sJ-19" value="Name" style="rounded=1;whiteSpace=wrap;html=1;" vertex="1" parent="1">
          <mxGeometry x="535" y="400" width="80" height="40" as="geometry" />
        </mxCell>
        <mxCell id="24G2LlNa-_oyBwP8V9sJ-20" value="Dosage" style="rounded=1;whiteSpace=wrap;html=1;" vertex="1" parent="1">
          <mxGeometry x="640" y="400" width="90" height="40" as="geometry" />
        </mxCell>
        <mxCell id="24G2LlNa-_oyBwP8V9sJ-21" value="Intake start time" style="rounded=1;whiteSpace=wrap;html=1;" vertex="1" parent="1">
          <mxGeometry x="490" y="560" width="100" height="50" as="geometry" />
        </mxCell>
        <mxCell id="24G2LlNa-_oyBwP8V9sJ-22" value="Intake end time" style="rounded=1;whiteSpace=wrap;html=1;" vertex="1" parent="1">
          <mxGeometry x="620" y="560" width="90" height="50" as="geometry" />
        </mxCell>
        <mxCell id="24G2LlNa-_oyBwP8V9sJ-23" value="Frequency" style="rounded=1;whiteSpace=wrap;html=1;" vertex="1" parent="1">
          <mxGeometry x="730" y="560" width="100" height="50" as="geometry" />
        </mxCell>
        <mxCell id="24G2LlNa-_oyBwP8V9sJ-24" value="Instructions" style="rounded=1;whiteSpace=wrap;html=1;" vertex="1" parent="1">
          <mxGeometry x="490" y="475" width="90" height="50" as="geometry" />
        </mxCell>
        <mxCell id="24G2LlNa-_oyBwP8V9sJ-25" value="Is refill required" style="rounded=1;whiteSpace=wrap;html=1;" vertex="1" parent="1">
          <mxGeometry x="760" y="395" width="70" height="45" as="geometry" />
        </mxCell>
        <mxCell id="24G2LlNa-_oyBwP8V9sJ-73" style="edgeStyle=orthogonalEdgeStyle;rounded=0;orthogonalLoop=1;jettySize=auto;html=1;entryDx=0;entryDy=0;" edge="1" parent="1" source="24G2LlNa-_oyBwP8V9sJ-27" target="24G2LlNa-_oyBwP8V9sJ-31">
          <mxGeometry relative="1" as="geometry">
            <Array as="points">
              <mxPoint x="593" y="860" />
            </Array>
          </mxGeometry>
        </mxCell>
        <mxCell id="24G2LlNa-_oyBwP8V9sJ-75" style="edgeStyle=orthogonalEdgeStyle;rounded=0;orthogonalLoop=1;jettySize=auto;html=1;" edge="1" parent="1" source="24G2LlNa-_oyBwP8V9sJ-27" target="24G2LlNa-_oyBwP8V9sJ-33">
          <mxGeometry relative="1" as="geometry" />
        </mxCell>
        <mxCell id="24G2LlNa-_oyBwP8V9sJ-76" style="edgeStyle=orthogonalEdgeStyle;rounded=0;orthogonalLoop=1;jettySize=auto;html=1;entryX=0.5;entryY=0;entryDx=0;entryDy=0;" edge="1" parent="1" source="24G2LlNa-_oyBwP8V9sJ-27" target="24G2LlNa-_oyBwP8V9sJ-34">
          <mxGeometry relative="1" as="geometry" />
        </mxCell>
        <mxCell id="24G2LlNa-_oyBwP8V9sJ-27" value="&lt;font size=&quot;3&quot;&gt;Medication Reminders&lt;/font&gt;" style="rounded=1;whiteSpace=wrap;html=1;" vertex="1" parent="1">
          <mxGeometry x="640" y="830" width="120" height="60" as="geometry" />
        </mxCell>
        <mxCell id="24G2LlNa-_oyBwP8V9sJ-71" style="edgeStyle=orthogonalEdgeStyle;rounded=0;orthogonalLoop=1;jettySize=auto;html=1;entryX=0.5;entryY=0;entryDx=0;entryDy=0;" edge="1" parent="1" source="24G2LlNa-_oyBwP8V9sJ-28" target="24G2LlNa-_oyBwP8V9sJ-29">
          <mxGeometry relative="1" as="geometry" />
        </mxCell>
        <mxCell id="24G2LlNa-_oyBwP8V9sJ-28" value="&lt;font size=&quot;3&quot;&gt;Appointments&lt;/font&gt;" style="rounded=1;whiteSpace=wrap;html=1;" vertex="1" parent="1">
          <mxGeometry x="40" y="880" width="120" height="60" as="geometry" />
        </mxCell>
        <mxCell id="24G2LlNa-_oyBwP8V9sJ-29" value="Doctor appointments" style="rounded=1;whiteSpace=wrap;html=1;" vertex="1" parent="1">
          <mxGeometry x="10" y="980" width="110" height="50" as="geometry" />
        </mxCell>
        <mxCell id="24G2LlNa-_oyBwP8V9sJ-30" value="Lab appointments" style="rounded=1;whiteSpace=wrap;html=1;" vertex="1" parent="1">
          <mxGeometry x="140" y="980" width="110" height="50" as="geometry" />
        </mxCell>
        <mxCell id="24G2LlNa-_oyBwP8V9sJ-31" value="Scheduled time" style="rounded=1;whiteSpace=wrap;html=1;" vertex="1" parent="1">
          <mxGeometry x="540" y="750" width="105" height="50" as="geometry" />
        </mxCell>
        <mxCell id="24G2LlNa-_oyBwP8V9sJ-32" value="Status" style="rounded=1;whiteSpace=wrap;html=1;" vertex="1" parent="1">
          <mxGeometry x="725" y="750" width="110" height="50" as="geometry" />
        </mxCell>
        <mxCell id="24G2LlNa-_oyBwP8V9sJ-33" value="Status validated by" style="rounded=1;whiteSpace=wrap;html=1;" vertex="1" parent="1">
          <mxGeometry x="560" y="930" width="105" height="50" as="geometry" />
        </mxCell>
        <mxCell id="24G2LlNa-_oyBwP8V9sJ-34" value="Rescheduled time" style="rounded=1;whiteSpace=wrap;html=1;" vertex="1" parent="1">
          <mxGeometry x="720" y="930" width="110" height="50" as="geometry" />
        </mxCell>
        <mxCell id="24G2LlNa-_oyBwP8V9sJ-68" style="edgeStyle=orthogonalEdgeStyle;rounded=0;orthogonalLoop=1;jettySize=auto;html=1;entryX=1;entryY=0.5;entryDx=0;entryDy=0;" edge="1" parent="1" source="24G2LlNa-_oyBwP8V9sJ-35" target="24G2LlNa-_oyBwP8V9sJ-38">
          <mxGeometry relative="1" as="geometry" />
        </mxCell>
        <mxCell id="24G2LlNa-_oyBwP8V9sJ-69" style="edgeStyle=orthogonalEdgeStyle;rounded=0;orthogonalLoop=1;jettySize=auto;html=1;entryX=0.5;entryY=0;entryDx=0;entryDy=0;" edge="1" parent="1" source="24G2LlNa-_oyBwP8V9sJ-35" target="24G2LlNa-_oyBwP8V9sJ-36">
          <mxGeometry relative="1" as="geometry" />
        </mxCell>
        <mxCell id="24G2LlNa-_oyBwP8V9sJ-70" style="edgeStyle=orthogonalEdgeStyle;rounded=0;orthogonalLoop=1;jettySize=auto;html=1;entryX=0.5;entryY=0;entryDx=0;entryDy=0;" edge="1" parent="1" source="24G2LlNa-_oyBwP8V9sJ-35" target="24G2LlNa-_oyBwP8V9sJ-37">
          <mxGeometry relative="1" as="geometry" />
        </mxCell>
        <mxCell id="24G2LlNa-_oyBwP8V9sJ-35" value="&lt;font size=&quot;3&quot;&gt;Reminders&lt;/font&gt;" style="rounded=1;whiteSpace=wrap;html=1;" vertex="1" parent="1">
          <mxGeometry x="305" y="740" width="120" height="60" as="geometry" />
        </mxCell>
        <mxCell id="24G2LlNa-_oyBwP8V9sJ-36" value="Medication" style="rounded=1;whiteSpace=wrap;html=1;" vertex="1" parent="1">
          <mxGeometry x="240" y="830" width="100" height="50" as="geometry" />
        </mxCell>
        <mxCell id="24G2LlNa-_oyBwP8V9sJ-37" value="Refill" style="rounded=1;whiteSpace=wrap;html=1;" vertex="1" parent="1">
          <mxGeometry x="370" y="830" width="100" height="50" as="geometry" />
        </mxCell>
        <mxCell id="24G2LlNa-_oyBwP8V9sJ-38" value="Doctor/Lab Appointment" style="rounded=1;whiteSpace=wrap;html=1;" vertex="1" parent="1">
          <mxGeometry x="155" y="742.5" width="100" height="55" as="geometry" />
        </mxCell>
        <mxCell id="24G2LlNa-_oyBwP8V9sJ-39" style="edgeStyle=orthogonalEdgeStyle;rounded=0;orthogonalLoop=1;jettySize=auto;html=1;entryX=0.422;entryY=1.08;entryDx=0;entryDy=0;entryPerimeter=0;" edge="1" parent="1" source="24G2LlNa-_oyBwP8V9sJ-2" target="24G2LlNa-_oyBwP8V9sJ-3">
          <mxGeometry relative="1" as="geometry" />
        </mxCell>
        <mxCell id="24G2LlNa-_oyBwP8V9sJ-41" style="edgeStyle=orthogonalEdgeStyle;rounded=0;orthogonalLoop=1;jettySize=auto;html=1;entryX=0.333;entryY=1.06;entryDx=0;entryDy=0;entryPerimeter=0;" edge="1" parent="1" source="24G2LlNa-_oyBwP8V9sJ-2" target="24G2LlNa-_oyBwP8V9sJ-5">
          <mxGeometry relative="1" as="geometry" />
        </mxCell>
        <mxCell id="24G2LlNa-_oyBwP8V9sJ-44" style="edgeStyle=orthogonalEdgeStyle;rounded=0;orthogonalLoop=1;jettySize=auto;html=1;" edge="1" parent="1" source="24G2LlNa-_oyBwP8V9sJ-6">
          <mxGeometry relative="1" as="geometry">
            <mxPoint x="690" y="180" as="targetPoint" />
          </mxGeometry>
        </mxCell>
        <mxCell id="24G2LlNa-_oyBwP8V9sJ-45" style="edgeStyle=orthogonalEdgeStyle;rounded=0;orthogonalLoop=1;jettySize=auto;html=1;entryX=0.1;entryY=0.96;entryDx=0;entryDy=0;entryPerimeter=0;" edge="1" parent="1" source="24G2LlNa-_oyBwP8V9sJ-6" target="24G2LlNa-_oyBwP8V9sJ-9">
          <mxGeometry relative="1" as="geometry" />
        </mxCell>
        <mxCell id="24G2LlNa-_oyBwP8V9sJ-49" style="edgeStyle=orthogonalEdgeStyle;rounded=0;orthogonalLoop=1;jettySize=auto;html=1;entryDx=0;entryDy=0;entryPerimeter=0;" edge="1" parent="1" source="24G2LlNa-_oyBwP8V9sJ-18" target="24G2LlNa-_oyBwP8V9sJ-24">
          <mxGeometry relative="1" as="geometry" />
        </mxCell>
        <mxCell id="24G2LlNa-_oyBwP8V9sJ-51" style="edgeStyle=orthogonalEdgeStyle;rounded=0;orthogonalLoop=1;jettySize=auto;html=1;entryDx=0;entryDy=0;entryPerimeter=0;" edge="1" parent="1" source="24G2LlNa-_oyBwP8V9sJ-18" target="24G2LlNa-_oyBwP8V9sJ-25">
          <mxGeometry relative="1" as="geometry">
            <Array as="points">
              <mxPoint x="795" y="510" />
            </Array>
          </mxGeometry>
        </mxCell>
        <mxCell id="24G2LlNa-_oyBwP8V9sJ-52" style="edgeStyle=orthogonalEdgeStyle;rounded=0;orthogonalLoop=1;jettySize=auto;html=1;entryX=0.611;entryY=0.02;entryDx=0;entryDy=0;entryPerimeter=0;" edge="1" parent="1" source="24G2LlNa-_oyBwP8V9sJ-18" target="24G2LlNa-_oyBwP8V9sJ-22">
          <mxGeometry relative="1" as="geometry" />
        </mxCell>
        <mxCell id="24G2LlNa-_oyBwP8V9sJ-53" style="edgeStyle=orthogonalEdgeStyle;rounded=0;orthogonalLoop=1;jettySize=auto;html=1;entryX=0.35;entryY=-0.02;entryDx=0;entryDy=0;entryPerimeter=0;" edge="1" parent="1" source="24G2LlNa-_oyBwP8V9sJ-18" target="24G2LlNa-_oyBwP8V9sJ-23">
          <mxGeometry relative="1" as="geometry" />
        </mxCell>
        <mxCell id="24G2LlNa-_oyBwP8V9sJ-56" style="edgeStyle=orthogonalEdgeStyle;rounded=0;orthogonalLoop=1;jettySize=auto;html=1;entryX=0.18;entryY=1.033;entryDx=0;entryDy=0;entryPerimeter=0;" edge="1" parent="1" source="24G2LlNa-_oyBwP8V9sJ-1" target="24G2LlNa-_oyBwP8V9sJ-6">
          <mxGeometry relative="1" as="geometry" />
        </mxCell>
        <mxCell id="24G2LlNa-_oyBwP8V9sJ-61" style="edgeStyle=orthogonalEdgeStyle;rounded=0;orthogonalLoop=1;jettySize=auto;html=1;entryX=0.608;entryY=-0.067;entryDx=0;entryDy=0;entryPerimeter=0;" edge="1" parent="1" source="24G2LlNa-_oyBwP8V9sJ-1" target="24G2LlNa-_oyBwP8V9sJ-28">
          <mxGeometry relative="1" as="geometry">
            <Array as="points">
              <mxPoint x="395" y="720" />
              <mxPoint x="113" y="720" />
            </Array>
          </mxGeometry>
        </mxCell>
        <mxCell id="24G2LlNa-_oyBwP8V9sJ-72" style="edgeStyle=orthogonalEdgeStyle;rounded=0;orthogonalLoop=1;jettySize=auto;html=1;entryX=0.418;entryY=0.04;entryDx=0;entryDy=0;entryPerimeter=0;" edge="1" parent="1" source="24G2LlNa-_oyBwP8V9sJ-28" target="24G2LlNa-_oyBwP8V9sJ-30">
          <mxGeometry relative="1" as="geometry" />
        </mxCell>
        <mxCell id="24G2LlNa-_oyBwP8V9sJ-74" style="edgeStyle=orthogonalEdgeStyle;rounded=0;orthogonalLoop=1;jettySize=auto;html=1;entryX=0.609;entryY=0.98;entryDx=0;entryDy=0;entryPerimeter=0;" edge="1" parent="1" source="24G2LlNa-_oyBwP8V9sJ-27" target="24G2LlNa-_oyBwP8V9sJ-32">
          <mxGeometry relative="1" as="geometry">
            <Array as="points">
              <mxPoint x="792" y="860" />
            </Array>
          </mxGeometry>
        </mxCell>
      </root>
    </mxGraphModel>
  </diagram>
</mxfile>
